# xmcd
#
# Track frame offsets:
# 150
# 18453
# 29329
# 42488
# 55006
# 67692
# 80282
# 91785
# 104998
# 122142
# 140088
# 160918
# 173611
# 192252
# 205142
# 218832
# 230229
# 241556
# 253024
# 265183
#
# Disc length: 3699 seconds
#
#
# Revision: 0
# Processed by: cddbd v1.5.1PL0 Copyright (c) Steve Scherf et al.
# Submitted via: FreeRIP 2.942 
#
DISCID=150e7114
DTITLE=Ray Price - 20 All Time Greatest Hits
DYEAR=2003
DGENRE=Country
TTITLE0=For The Good Times
TTITLE1=Burning Memories
TTITLE2=Take Me As I Am Or Let Me Die
TTITLE3=Lonesomest Lonesome
TTITLE4=She Wears My Ring
TTITLE5=Heart Over Mind
TTITLE6=Crazy Arms
TTITLE7=The Other Woman
TTITLE8=You're The Best Thing That Ever Happened To Me
TTITLE9=I Won't Mention It Again
TTITLE10=Danny Boy
TTITLE11=Release Me
TTITLE12=She's Got To Be A Saint
TTITLE13=City Lights
TTITLE14=Heartaches By The Number
TTITLE15=Make The World Go Away
TTITLE16=I've Got A Heartache
TTITLE17=My Shoes Keep Walking Back To You
TTITLE18=Talk To Your Heart
TTITLE19=Don't Let The Stars Get In Your Eyes
EXTD=King Records
EXTT0=
EXTT1=
EXTT2=
EXTT3=
EXTT4=
EXTT5=
EXTT6=
EXTT7=
EXTT8=
EXTT9=
EXTT10=
EXTT11=
EXTT12=
EXTT13=
EXTT14=
EXTT15=
EXTT16=
EXTT17=
EXTT18=
EXTT19=
PLAYORDER=
